<svg version="1.1" xmlns="http://www.w3.org/2000/svg" viewBox="0 0 93.97430979616547 174.7565762823724" width="93.97430979616547" height="174.7565762823724"><!-- svg-source:excalidraw --><metadata></metadata><defs><style class="style-fonts">
      </style></defs><rect x="0" y="0" width="93.97430979616547" height="174.7565762823724" fill="#ffffff"></rect><g stroke-linecap="round" transform="translate(25.959831217789542 10) rotate(0 24.027649548297177 26.3654514816335)"><path d="M34.77 2.36 C39.51 4.4, 44.96 10.53, 47.11 15.9 C49.27 21.28, 49.36 29.07, 47.69 34.6 C46.03 40.12, 41.65 46.09, 37.1 49.05 C32.54 52, 25.38 53.19, 20.35 52.34 C15.33 51.49, 10.42 48.11, 6.93 43.97 C3.43 39.84, -0.2 33.25, -0.62 27.52 C-1.05 21.79, 1.02 14.02, 4.37 9.6 C7.73 5.19, 14.28 1.87, 19.51 1.03 C24.73 0.2, 32.67 3.97, 35.7 4.59 C38.73 5.22, 37.85 4.72, 37.7 4.79 M18.38 1.58 C23.26 0.08, 29.18 1.46, 33.8 3.39 C38.42 5.32, 43.99 8.52, 46.09 13.14 C48.18 17.75, 47.65 25.62, 46.37 31.08 C45.08 36.55, 42.41 42.1, 38.36 45.93 C34.32 49.76, 27.13 54.2, 22.09 54.06 C17.04 53.92, 11.73 49.05, 8.08 45.1 C4.44 41.15, 1.14 35.94, 0.22 30.36 C-0.7 24.77, -0.06 16.36, 2.58 11.59 C5.21 6.83, 13.46 3.19, 16.05 1.77 C18.63 0.34, 17.85 2.49, 18.08 3.05" stroke="#000000" stroke-width="2" fill="none"></path></g><g stroke-linecap="round"><g transform="translate(47.52673395422062 62.88965940666094) rotate(0 -1.3539380563720442 30.789171526197606)"><path d="M1.16 -0.88 C1 9.43, -1.34 50.48, -2.12 61.06 M0.31 1.27 C0.15 11.81, -2.54 52.41, -2.76 62.33" stroke="#000000" stroke-width="2" fill="none"></path></g></g><mask></mask><g stroke-linecap="round"><g transform="translate(44.93334935572602 126.17619022224244) rotate(0 12.188026358599018 18.77684705277352)"><path d="M0.59 -0.52 C4.33 6.06, 19.71 32.08, 23.58 38.58 M-0.56 1.83 C3.46 8.16, 21.99 31.2, 25.88 37" stroke="#000000" stroke-width="2" fill="none"></path></g></g><mask></mask><g stroke-linecap="round"><g transform="translate(41.5702055087404 123.65386454934924) rotate(0 -10.428423655566348 17.443579806425987)"><path d="M-0.79 1.03 C-4.46 7.08, -18.11 30.13, -21.41 35.82 M0.99 0.52 C-2.93 6.3, -18.94 28.17, -22.65 34.19" stroke="#000000" stroke-width="2" fill="none"></path></g></g><mask></mask><g stroke-linecap="round"><g transform="translate(24.19481066354092 74.89817043504445) rotate(0 11.839206439495683 11.36377780901239)"><path d="M-0.55 0.93 C3.57 4.6, 19.82 19.46, 23.93 23.01 M1.36 0.38 C5.41 4.18, 19.41 17.22, 23.12 21.03" stroke="#000000" stroke-width="2" fill="none"></path></g></g><mask></mask><g stroke-linecap="round"><g transform="translate(49.37860399414603 97.15861820933787) rotate(0 17.061169821036856 -9.62226206474952)"><path d="M0.25 0.28 C6.11 -3.17, 28.98 -16.67, 34.6 -19.79 M-1.07 -0.62 C4.72 -4, 28.2 -15.24, 33.9 -18.53" stroke="#000000" stroke-width="2" fill="none"></path></g></g><mask></mask><g stroke-linecap="round"><g transform="translate(69.6897331842647 23.921596183034126) rotate(0 -20.133557795204524 9.828242925872473)"><path d="M0.47 -0.54 C-1.67 1.09, -6.99 9.5, -12.59 10.1 C-18.2 10.7, -28.58 1.6, -33.17 3.07 C-37.76 4.53, -38.83 16, -40.14 18.88 M-0.74 1.79 C-3.07 3.06, -8.09 8.03, -13.64 8.4 C-19.18 8.76, -29.65 2.12, -34.02 3.98 C-38.39 5.84, -38.96 16.72, -39.83 19.58" stroke="#000000" stroke-width="2" fill="none"></path></g></g><mask></mask><g stroke-linecap="round"><g transform="translate(29.170699183605393 24.086667546551325) rotate(0 -8.110569324062453 14.348400693277654)"><path d="M-0.18 0.81 C-0.56 -0.43, -0.44 -6.24, -1.76 -7.97 C-3.08 -9.7, -5.57 -11.63, -8.11 -9.56 C-10.65 -7.5, -16.46 -3.29, -16.99 4.43 C-17.52 12.14, -13.25 33.88, -11.3 36.73 C-9.34 39.58, -7.09 27.7, -5.24 21.52 C-3.38 15.34, -0.82 3.36, -0.15 -0.35 M-1.74 0.18 C-2.32 -0.87, -1.61 -5.37, -2.79 -6.84 C-3.97 -8.31, -6.42 -10.17, -8.81 -8.65 C-11.21 -7.14, -16.53 -5.32, -17.14 2.24 C-17.76 9.81, -14.2 33.63, -12.5 36.73 C-10.79 39.82, -9.08 26.65, -6.93 20.83 C-4.78 15, -0.88 5.49, 0.42 1.78" stroke="#000000" stroke-width="2" fill="none"></path></g></g><mask></mask><g stroke-linecap="round" transform="translate(14.113745467160697 61.31197612109099) rotate(18.529685470617636 6.755317609266513 14.04658249007116)"><path d="M0 0 C3.41 0.08, 7.26 -0.42, 13.51 0 M0 0 C5.15 0.23, 9.67 -0.06, 13.51 0 M13.51 0 C12.7 6.57, 13.71 11.55, 13.51 28.09 M13.51 0 C13.21 10.48, 13.52 21.26, 13.51 28.09 M13.51 28.09 C9.84 28.13, 7.02 27.53, 0 28.09 M13.51 28.09 C10.07 28.43, 6.12 28.45, 0 28.09 M0 28.09 C0.46 20.14, -0.18 14.53, 0 0 M0 28.09 C-0.25 17.31, 0.51 5.68, 0 0" stroke="#000000" stroke-width="1" fill="none"></path></g></svg>